<?xml version="1.0" encoding="UTF-8"?>
<svg id="Layer_1" xmlns="http://www.w3.org/2000/svg" version="1.1" viewBox="0 0 707.3 900.5">
  <!-- Generator: Adobe Illustrator 29.1.0, SVG Export Plug-In . SVG Version: 2.1.0 Build 142)  -->
  <defs>
    <style>
      .st0 {
        fill-rule: evenodd;
      }

      .st0, .st1 {
        fill: #fff;
      }
    </style>
  </defs>
  <g>
    <path class="st0" d="M528.9,2v34.3h-42.4V2h-64.5v34.3h-35.9V2h-64.5v34.3h-35.9V2h-64.5v34.3h-40V2h-63.6v420.2c0,129.7,102.8,235,238.2,235s235-105.2,235-235V2h-62.8.8ZM580.3,418.9c0,124-97.9,224.4-219.5,224.4h-9.8c-120.7,0-218.7-100.4-218.7-224.4V14.2h38.3v33.5h66.1V14.2h38.3v33.5h62V14.2h38.3v33.5h62V14.2h38.3v33.5h67.7V14.2h38.3v403.9l-1.6.8Z"/>
    <path class="st0" d="M384.5,518.4c0-9,4.9-11.4,11.4-11.4s10.6,2.4,11.4,11.4h10.6c0-23.7-27.7-38.3-61.2-38.3s-60.4,15.5-61.2,38.3h10.6c0-9,4.9-11.4,11.4-11.4s10.6,2.4,11.4,11.4h9.8c0-13.9,8.2-28.6,18.8-28.6s18.8,13.9,18.8,27.7h10.6l-2.4.8Z"/>
    <path class="st1" d="M355.9,550.3c-44.1,0-79.1-36.7-79.1-80.8s35.9-80.8,79.1-80.8,79.1,36.7,79.1,80.8-35.9,80.8-79.1,80.8M355.9,389.5c-43.2,0-77.5,35.9-77.5,80s35.1,79.1,77.5,79.1,77.5-35.9,77.5-79.1-35.1-80-77.5-80"/>
    <polygon class="st0" points="257.2 98.3 265.4 98.3 265.4 168.4 257.2 176.6 257.2 98.3"/>
    <path class="st1" d="M256.4,177.4v-79.1h9v71h0l-9,8.2ZM257.2,98.3v77.5l8.2-7.3v-70.2h-8.2Z"/>
    <polygon class="st0" points="249.1 98.3 240.1 98.3 240.1 130.9 249.1 145.6 249.1 98.3"/>
    <path class="st1" d="M249.9,146.4l-9.8-15.5v-33.5h9.8v49ZM240.9,130.9l8.2,13.9v-46.5h-8.2s0,32.6,0,32.6Z"/>
    <g>
      <polygon class="st0" points="222.9 98.3 231.9 98.3 231.9 130.9 222.9 145.6 222.9 98.3"/>
      <path class="st1" d="M222.9,146.4v-49h9.8v33.5h0l-9,15.5h-.8ZM223.8,98.3v46.5l8.2-13.9v-32.6s-8.2,0-8.2,0Z"/>
      <polygon class="st0" points="216.4 98.3 208.3 98.3 208.3 168.4 216.4 176.6 216.4 98.3"/>
      <path class="st1" d="M217.2,177.4l-9-8.2v-71h9v79.1ZM208.3,168.4l8.2,7.3v-77.5h-8.2v70.2Z"/>
      <path class="st0" d="M236.8,197.8c8.2-4.9,11.4-31,11.4-31,0-17.1-11.4-30.2-11.4-30.2,0,0-10.6,13.1-10.6,30.2,0,0,2.4,26.1,10.6,31"/>
      <path class="st0" d="M264.6,183.9v15.5s.8,9.8-9,19.6c-9.8,9.8-16.3,14.7-16.3,14.7v-17.9s0-7.3,5.7-14.7c5.7-7.3,17.1-17.1,17.1-17.1,0,0,2.4,0,2.4,0Z"/>
      <path class="st0" d="M208.3,183.9v15.5s-.8,9.8,9,19.6c9.8,9.8,16.3,14.7,16.3,14.7v-17.9s0-7.3-6.5-14.7c-5.7-7.3-17.1-17.1-17.1-17.1,0,0-1.6,0-1.6,0Z"/>
      <path class="st0" d="M264.6,224.7v15.5s.8,9.8-9,19.6-16.3,15.5-16.3,15.5v-17.9s0-7.3,5.7-14.7c5.7-7.3,17.1-17.1,17.1-17.1h2.4v-.8Z"/>
      <path class="st0" d="M208.3,224.7v15.5s-.8,9.8,9,19.6c9.8,9.8,16.3,15.5,16.3,15.5v-17.9s0-7.3-6.5-14.7c-5.7-7.3-17.1-17.1-17.1-17.1h-1.6v-.8Z"/>
      <rect class="st1" x="233.6" y="283.5" width="7.3" height="39.2"/>
      <rect class="st1" x="169.9" y="354.5" width="7.3" height="124"/>
      <polygon class="st0" points="192.8 98.3 201.7 98.3 201.7 197 192.8 205.1 192.8 98.3"/>
      <path class="st1" d="M192.8,205.1v-107.7h9.8v99.5h0l-9,8.2h-.8ZM193.6,98.3v106.1l8.2-7.3v-98.7h-8.2Z"/>
      <polygon class="st0" points="186.2 98.3 177.3 98.3 177.3 159.5 186.2 174.1 186.2 98.3"/>
      <path class="st1" d="M186.2,175l-9.8-15.5v-62h9.8v77.5ZM177.3,159.5l8.2,13.9v-75.1h-8.2s0,61.2,0,61.2Z"/>
      <polygon class="st0" points="159.3 98.3 168.3 98.3 168.3 159.5 159.3 174.1 159.3 98.3"/>
      <path class="st1" d="M159.3,175v-77.5h9.8v62h0s-9.8,15.5-9.8,15.5ZM160.1,98.3v75.1l8.2-13.9v-61.2s-8.2,0-8.2,0Z"/>
      <polygon class="st0" points="152.8 98.3 143.8 98.3 143.8 197 152.8 205.1 152.8 98.3"/>
      <path class="st1" d="M153.6,205.1l-9.8-8.2v-99.5h9.8v107.7ZM144.6,197l8.2,7.3v-106.1h-8.2v98.7Z"/>
      <path class="st0" d="M173.2,225.5c8.2-4.9,11.4-31.8,11.4-31.8,0-17.1-11.4-30.2-11.4-30.2,0,0-11.4,13.1-11.4,30.2,0,0,2.4,26.9,10.6,31.8"/>
      <path class="st0" d="M200.9,211.7v15.5s0,9.8-9,19.6c-9.8,9.8-16.3,14.7-16.3,14.7v-17.9s0-7.3,6.5-14.7c5.7-7.3,17.9-17.1,17.9-17.1h1.6-.8Z"/>
      <path class="st0" d="M144.6,211.7v15.5s-.8,9.8,9,19.6c9.8,9.8,17.1,14.7,17.1,14.7v-17.9s0-7.3-6.5-14.7c-5.7-7.3-17.1-17.1-17.1-17.1h-2.4Z"/>
      <path class="st0" d="M200.9,251.7v15.5s0,9.8-9,19.6c-9.8,9.8-16.3,14.7-16.3,14.7v-17.9s0-7.3,6.5-14.7c5.7-7.3,17.9-17.1,17.9-17.1h1.6-.8Z"/>
      <path class="st0" d="M144.6,251.7v15.5s-.8,9.8,9,19.6c9.8,9.8,17.1,14.7,17.1,14.7v-17.9s0-7.3-6.5-14.7c-5.7-7.3-17.1-17.1-17.1-17.1h-2.4Z"/>
      <path class="st0" d="M200.9,293.3v15.5s0,9.8-9,19.6c-9.8,9.8-16.3,15.5-16.3,15.5v-17.9s0-7.3,6.5-14.7c5.7-7.3,17.9-17.1,17.9-17.1h1.6l-.8-.8Z"/>
      <path class="st0" d="M144.6,293.3v15.5s-.8,9.8,9,19.6c9.8,9.8,17.1,15.5,17.1,15.5v-17.9s0-7.3-6.5-14.7c-5.7-7.3-17.1-17.1-17.1-17.1h-1.6l-.8-.8Z"/>
    </g>
    <g>
      <path class="st0" d="M356.7,321c0,2.4-6.5,13.1-17.9,27.7-11.4,15.5-4.1,32.6,15.5,32.6s25.3-17.1,18.8-31c-5.7-11.4-13.1-21.2-16.3-29.4"/>
      <path class="st0" d="M412.2,332.4c0,2.4-11.4,9-26.9,17.1-16.3,9-17.1,27.7,0,35.9,22,10.6,30.2-5.7,29.4-21.2,0-12.2-3.3-23.7-3.3-32.6"/>
      <path class="st0" d="M458.7,361c-1.6,2.4-13.9,5.7-31.8,8.2-17.9,4.1-24.5,22-10.6,35.1,17.9,17.1,30.2,4.1,34.3-10.6,3.3-12.2,4.1-24.5,7.3-32.6"/>
      <path class="st0" d="M490.5,411.6c-2.4,1.6-14.7,0-31.8-5.7-18.8-4.1-31.8,9-23.7,27.7,9.8,22.8,26.1,17.1,35.9,4.9,7.3-9.8,13.1-20.4,19.6-26.1"/>
      <path class="st0" d="M501.2,463c-2.4.8-13.9-4.9-29.4-13.9-17.1-9-32.6.8-30.2,20.4,4.1,24.5,21.2,22.8,33.5,13.9,10.6-7.3,17.9-15.5,25.3-20.4"/>
      <path class="st0" d="M490.5,524.2c-2.4,0-9.8-11.4-17.9-27.7-9.8-16.3-28.6-16.3-35.9,1.6-9,22.8,6.5,31,22,29.4,12.2-.8,23.7-4.1,31.8-4.1"/>
      <path class="st0" d="M465.3,569c-2.4-1.6-7.3-13.1-12.2-30.2-6.5-17.9-24.5-22-35.1-5.7-13.9,20.4,0,31.8,15.5,33.5,12.2,1.6,23.7.8,31.8,3.3"/>
      <path class="st0" d="M415.5,604.1c-1.6-2.4,0-14.7,3.3-32.6,2.4-18.8-11.4-31-28.6-22-22,11.4-14.7,27.7-1.6,36.7,9.8,7.3,20.4,12.2,26.9,17.9"/>
      <path class="st0" d="M353.5,617.2c0-3.3,6.5-13.1,17.9-27.7,11.4-15.5,4.1-33.5-14.7-33.5s-25.3,17.9-18.8,31.8c4.9,11.4,13.1,20.4,15.5,29.4"/>
      <path class="st0" d="M298.8,332.4c.8,2.4,11.4,9,27.7,17.1,16.3,9,17.1,27.7,0,35.9-22,10.6-30.2-5.7-29.4-21.2,0-12.2,3.3-23.7,2.4-32.6"/>
      <path class="st0" d="M253.1,361c1.6,2.4,13.9,5.7,31.8,8.2,17.9,4.1,24.5,22,9.8,35.1-17.9,17.1-30.2,4.1-34.3-10.6-3.3-12.2-4.1-24.5-7.3-32.6"/>
      <path class="st0" d="M221.3,411.6c2.4,1.6,14.7,0,31.8-5.7,18.8-4.1,31.8,9,23.7,27.7-9.8,22.8-26.1,17.1-35.9,4.9-8.2-9.8-13.1-20.4-19.6-26.1"/>
      <path class="st0" d="M210.7,463c2.4.8,13.9-4.9,29.4-13.9,17.1-9,32.6.8,29.4,20.4-3.3,24.5-20.4,22.8-33.5,13.9-10.6-7.3-17.9-15.5-25.3-20.4"/>
      <path class="st0" d="M221.3,524.2c2.4,0,9.8-11.4,17.9-27.7,9.8-16.3,28.6-16.3,35.9,1.6,9,22.8-6.5,31-22,29.4-12.2-.8-23.7-4.1-31.8-4.1"/>
      <path class="st0" d="M245.8,569c2.4-1.6,7.3-13.1,12.2-30.2,5.7-17.9,24.5-22,35.1-5.7,13.9,20.4,0,31.8-14.7,33.5-12.2,1.6-23.7.8-32.6,3.3"/>
      <path class="st0" d="M296.4,604.1c1.6-2.4,0-14.7-3.3-32.6-2.4-18.8,11.4-31,28.6-22,22,11.4,14.7,27.7,1.6,36.7-9.8,7.3-20.4,12.2-26.9,17.9"/>
    </g>
    <path class="st0" d="M299.6,121.9v13.9h34.3v144.4l-9.8,13.1,30.2-11.4v-82.4h4.1v82.4l30.2,11.4-9.8-12.2v-142.8s3.3,0,3.3,3.3v53.8h13.1v-55.5s.8-17.1-20.4-17.1h-75.1v-.8Z"/>
    <path class="st0" d="M413.9,121.9h-23.7s7.3,6.5,7.3,13.9h16.3v-13.9Z"/>
    <path class="st1" d="M324.1,247.6h-44.1l21.2-106.1h.8s22,106.1,22,106.1ZM280.9,246.8h42.4l-21.2-102.8-21.2,102.8Z"/>
    <rect class="st1" x="275.2" y="244.3" width="54.7" height="13.1"/>
    <rect class="st1" x="302.1" y="148.9" width=".8" height="98.7"/>
    <path class="st1" d="M434.3,247.6h-44.1l21.2-106.1h.8s22,106.1,22,106.1ZM391,246.8h42.4l-21.2-102.8s-21.2,102.8-21.2,102.8Z"/>
    <rect class="st1" x="384.5" y="244.3" width="54.7" height="13.1"/>
    <rect class="st1" x="411.4" y="148.9" width=".8" height="98.7"/>
    <path class="st0" d="M340.4,103.2c0-8.2,6.5-14.7,14.7-14.7s14.7,6.5,14.7,14.7-6.5,14.7-14.7,14.7-14.7-6.5-14.7-14.7"/>
    <path class="st0" d="M283.3,135.8c0-7.3,5.7-13.1,13.1-13.1v13.1h-13.1Z"/>
    <path class="st0" d="M395.1,198.6c0,7.3-5.7,13.1-13.1,13.1v-13.1h13.1Z"/>
    <polygon class="st0" points="355.9 471.1 347 458.9 320.8 451.5 280.9 458.9 321.7 439.3 355.9 448.3 390.2 439.3 431 458.9 391 451.5 364.9 458.9 355.9 471.1"/>
    <polygon class="st0" points="355.9 428.7 350.2 421.4 334.7 417.3 311.9 421.4 335.5 409.9 355.9 415.6 376.3 409.9 400.8 421.4 377.1 417.3 361.6 421.4 355.9 428.7"/>
    <g>
      <polygon class="st0" points="455.5 98.3 446.5 98.3 446.5 168.4 455.5 176.6 455.5 98.3"/>
      <path class="st1" d="M455.5,177.4l-9.8-8.2v-71h9.8v79.1ZM447.3,168.4l8.2,7.3v-77.5h-8.2v70.2Z"/>
      <polygon class="st0" points="462.8 98.3 471.8 98.3 471.8 130.9 462.8 145.6 462.8 98.3"/>
      <path class="st1" d="M462.8,146.4v-49h9v33.5h0l-9,15.5ZM463.6,98.3v46.5l8.2-13.9v-32.6s-8.2,0-8.2,0Z"/>
      <polygon class="st0" points="488.9 98.3 479.9 98.3 479.9 130.9 488.9 145.6 488.9 98.3"/>
      <path class="st1" d="M488.9,146.4l-9-15.5v-33.5h9v49ZM480.8,130.9l8.2,13.9v-46.5h-8.2s0,32.6,0,32.6Z"/>
      <polygon class="st0" points="495.4 98.3 504.4 98.3 504.4 168.4 495.4 176.6 495.4 98.3"/>
      <path class="st1" d="M495.4,177.4v-79.1h9.8v71h0l-9,8.2h-.8ZM495.4,98.3v77.5l8.2-7.3v-70.2h-8.2Z"/>
      <path class="st0" d="M475.9,197.8c-8.2-4.9-11.4-31-11.4-31,0-17.1,10.6-30.2,10.6-30.2,0,0,11.4,13.1,11.4,30.2,0,0-2.4,26.1-10.6,31"/>
      <path class="st0" d="M448.1,183.9v15.5s-.8,9.8,9,19.6c9.8,9.8,16.3,14.7,16.3,14.7v-17.9s0-7.3-6.5-14.7c-5.7-7.3-17.1-17.1-17.1-17.1,0,0-1.6,0-1.6,0Z"/>
      <path class="st0" d="M504.4,183.9v15.5s0,9.8-9,19.6c-9.8,9.8-16.3,14.7-16.3,14.7v-17.9s0-7.3,5.7-14.7,17.1-17.1,17.1-17.1h2.4Z"/>
      <path class="st0" d="M448.1,224.7v15.5s-.8,9.8,9,19.6c9.8,9.8,16.3,15.5,16.3,15.5v-17.9s0-7.3-6.5-14.7c-5.7-7.3-17.1-17.1-17.1-17.1h-1.6v-.8Z"/>
      <path class="st0" d="M504.4,224.7v15.5s0,9.8-9,19.6c-9.8,9.8-16.3,15.5-16.3,15.5v-17.9s0-7.3,5.7-14.7c5.7-7.3,17.1-17.1,17.1-17.1h1.6l.8-.8Z"/>
      <polygon class="st0" points="519.1 98.3 510.1 98.3 510.1 197 519.1 205.1 519.1 98.3"/>
      <path class="st1" d="M519.9,205.1l-9.8-8.2v-99.5h9.8v107.7ZM510.9,197l8.2,7.3v-106.1h-8.2v98.7Z"/>
      <polygon class="st0" points="526.4 98.3 535.4 98.3 535.4 159.5 526.4 174.1 526.4 98.3"/>
      <path class="st1" d="M526.4,175v-77.5h9.8v62h0l-9.8,15.5ZM526.4,98.3v75.1l8.2-13.9v-61.2s-8.2,0-8.2,0Z"/>
      <polygon class="st0" points="552.6 98.3 543.6 98.3 543.6 159.5 552.6 174.1 552.6 98.3"/>
      <path class="st1" d="M552.6,175l-9.8-15.5v-62h9.8v77.5ZM544.4,159.5l8.2,13.9v-75.1h-8.2s0,61.2,0,61.2Z"/>
      <polygon class="st0" points="559.1 98.3 568.1 98.3 568.1 197 559.1 205.1 559.1 98.3"/>
      <path class="st1" d="M559.1,205.1v-107.7h9.8v99.5h0l-9,8.2h-.8ZM559.9,98.3v106.1l8.2-7.3v-98.7h-8.2Z"/>
      <path class="st0" d="M539.5,225.5c-9-4.9-11.4-31.8-11.4-31.8,0-17.1,11.4-30.2,11.4-30.2,0,0,10.6,13.1,10.6,30.2,0,0-2.4,26.9-10.6,31.8"/>
      <path class="st0" d="M511.8,211.7v15.5s-.8,9.8,9,19.6c9.8,9.8,17.1,14.7,17.1,14.7v-17.9s0-7.3-6.5-14.7c-5.7-7.3-17.9-17.1-17.9-17.1,0,0-1.6,0-1.6,0Z"/>
      <path class="st0" d="M568.1,211.7v15.5s.8,9.8-9,19.6c-9.8,9.8-16.3,14.7-16.3,14.7v-17.9s0-7.3,6.5-14.7c5.7-7.3,17.1-17.1,17.1-17.1,0,0,1.6,0,1.6,0Z"/>
      <path class="st0" d="M511.8,251.7v15.5s-.8,9.8,9,19.6c9.8,9.8,17.1,14.7,17.1,14.7v-17.9s0-7.3-6.5-14.7c-5.7-7.3-17.9-17.1-17.9-17.1,0,0-1.6,0-1.6,0Z"/>
      <path class="st0" d="M568.1,251.7v15.5s.8,9.8-9,19.6c-9.8,9.8-16.3,14.7-16.3,14.7v-17.9s0-7.3,6.5-14.7c5.7-7.3,17.1-17.1,17.1-17.1,0,0,1.6,0,1.6,0Z"/>
      <path class="st0" d="M511.8,293.3v15.5s-.8,9.8,9,19.6c9.8,9.8,17.1,15.5,17.1,15.5v-17.9s0-7.3-6.5-14.7c-5.7-7.3-17.9-17.1-17.9-17.1h-1.6v-.8Z"/>
      <path class="st0" d="M568.1,293.3v15.5s.8,9.8-9,19.6c-9.8,9.8-16.3,15.5-16.3,15.5v-17.9s0-7.3,6.5-14.7c5.7-7.3,17.1-17.1,17.1-17.1h1.6v-.8Z"/>
      <rect class="st1" x="536.2" y="354.5" width="7.3" height="124"/>
      <rect class="st1" x="472.6" y="283.5" width="7.3" height="39.2"/>
    </g>
  </g>
  <g>
    <rect class="st1" x="682.5" y="820.9" width="22" height="14.5"/>
    <polygon class="st0" points="154.2 885.3 154.2 899.8 89.3 899.8 89.3 820.9 153.2 820.9 153.2 835.9 111.8 835.9 111.8 851.4 151.2 851.4 151.2 866.3 111.8 866.3 111.8 885.3 154.2 885.3"/>
    <polygon class="st0" points="232 884.8 232 899.8 165.1 899.8 165.1 820.9 187.1 820.9 187.1 884.8 232 884.8"/>
    <polygon class="st0" points="303.3 885.3 303.3 899.8 238.5 899.8 238.5 820.9 302.3 820.9 302.3 835.9 260.9 835.9 260.9 851.4 300.3 851.4 300.3 866.3 260.9 866.3 260.9 885.3 303.3 885.3"/>
    <rect class="st1" x="412.1" y="839.9" width="22" height="59.9"/>
    <polygon class="st0" points="529.8 820.9 495.4 862.8 495.4 899.8 473.5 899.8 473.5 862.8 439 820.9 465.5 820.9 484.4 845.9 503.9 820.9 529.8 820.9"/>
    <polygon class="st0" points="598.7 885.3 598.7 899.8 534.3 899.8 534.3 820.9 598.2 820.9 598.2 835.9 556.3 835.9 556.3 851.4 596.2 851.4 596.2 866.3 556.3 866.3 556.3 885.3 598.7 885.3"/>
    <path class="st0" d="M669,825.9v16h-1.5c-10-5.5-19-7.5-26.9-7.5s-7,.5-9.5,2c-2.5,1-3.5,2.5-3.5,4.5,0,3,5,6,14.5,9.5l7,2.5c8.5,3,14.5,6,18.5,10s6,8.5,6,14.5-3,12.5-9.5,17c-6.5,4.5-14.5,6.5-24.9,6.5s-15-1.5-22.9-4.5c-3.5-1.5-6-2.5-8-3.5v-17c6,3.5,10.5,5.5,14,7,5.5,2,11,3,16,3,9,0,13-2.5,13-7s-1-3.5-2.5-5-5-2.5-9.5-4l-4.5-1.5c-5-1.5-10-3.5-14.5-6-3.5-1.5-6-3.5-8.5-5.5-4-4-6-9-6-14.5s3-12,9-16,14-6,23.9-6,19.5,2,29.9,6"/>
    <rect class="st1" x="682.5" y="839.9" width="22" height="59.9"/>
    <rect class="st1" x="412.1" y="820.9" width="22" height="14.5"/>
    <path class="st0" d="M27.4,834.9v17h8.5c5,0,9-.5,11.5-2,2.5-1.5,3.5-3.5,3.5-6.5,0-5.5-5-8.5-14.5-8.5h-9ZM27.4,866.3v19h11c7,0,11.5-.5,14.5-2,3-1.5,4-4,4-7.5s-1.5-6-4.5-7.5c-2.5-1.5-8-2-15-2h-10ZM5,820.9h33.4c7.5,0,13.5,0,17,1.5,5,1.5,9,3.5,12,7s4.5,7,4.5,11c0,7-4,12.5-12,16,12.5,3.5,18.5,10.5,18.5,20.5s-1.5,9.5-4.5,13c-3,3.5-7.5,6.5-12.5,8-4,1-9.5,2-16.5,2H4.5v-78.8h.5Z"/>
    <g>
      <path class="st0" d="M318.3,699.2v21l-1.5-1c-11.5-6-21-9-29.4-9s-8,1-10.5,2.5-4,3.5-4,6c0,4,5,8,15.5,12l7.5,3c9.5,3.5,16,8,20.5,13.5,4.5,5,6.5,11.5,6.5,19s-3.5,16.5-10.5,22c-7,5.5-16,8.5-27.4,8.5s-16.5-2-25.4-5.5c-4-1.5-7-3-8.5-4.5v-22c6.5,4,11.5,7,15.5,9,6,2.5,12,4,18,4,9.5,0,14.5-3,14.5-9.5s-1-4.5-3-6.5c-2-1.5-5.5-3.5-10-5l-5-2c-5.5-2-11-4.5-16-7.5-3.5-2-6.5-4.5-9-7.5-4-5-6.5-11.5-6.5-19s3.5-16,10-21c6.5-5.5,15.5-8,26.4-8s21.5,2.5,32.9,8"/>
      <polygon class="st0" points="447.5 776 447.5 795 373.7 795 373.7 692.7 398.1 692.7 398.1 776 447.5 776"/>
      <rect class="st1" x="455.5" y="717.7" width="24.4" height="77.3"/>
      <polygon class="st0" points="586.7 692.7 542.3 796.5 531.8 796.5 484.9 692.7 510.9 692.7 536.8 751.1 560.8 692.7 586.7 692.7"/>
      <rect class="st1" x="681.5" y="717.7" width="24.4" height="77.3"/>
      <rect class="st1" x="333.8" y="692.7" width="24.4" height="20"/>
      <rect class="st1" x="455.5" y="692.7" width="24.4" height="20"/>
      <rect class="st1" x="681.5" y="692.7" width="24.4" height="20"/>
      <rect class="st1" x="333.8" y="717.7" width="24.4" height="77.3"/>
      <path class="st0" d="M615.6,711.2v23.4h15c3,0,6-1.5,8-3.5,2-2,3-5,3-8,0-8-4.5-12-13.5-12h-12.5ZM591.2,692.7h36.9c7,0,12.5,0,15.5,1,3.5.5,6.5,2,10,4,4,2.5,7,6,9,10.5,2.5,4.5,3.5,9,3.5,14,0,8-3,14.5-8,19.5-2,2-5,3.5-8.5,5.5,4.5,2.5,9.5,9,14,19.5l12.5,28.9h-26.4v-1c-.5,0-2.5-4-2.5-4l-2-4.5-6.5-15.5c-4-9-8-14.5-13-16-1.5,0-3.5-.5-7-.5h-3.5v41.9h-24.4v-102.3l.5-1Z"/>
    </g>
    <path class="st0" d="M336.3,835.9v48.4h9c9,0,15-1,19.5-2.5,10-3.5,14.5-11,14.5-22.5s-5-18.5-15-22c-4-1.5-9.5-2-17-2h-11v.5ZM314.3,820.9h45.4c6.5.5,12.5,2,18,4.5,9.5,4,16.5,10,20.5,18.5,2.5,4.5,3.5,10,3.5,16,0,9.5-3,17.5-9,23.9-6,6.5-14,11-24.4,13.5-5.5,1-12.5,2-20,2h-33.9v-78.8.5Z"/>
    <g>
      <polygon class="st1" points="0 715.2 26.4 715.2 26.4 793 51.9 793 51.9 715.2 77.8 715.2 77.8 691.7 0 691.7 0 715.2"/>
      <rect class="st1" x="80.8" y="767.1" width="24.9" height="25.9"/>
      <path class="st1" d="M188.6,764.6l-5,3.5h-.5c-2,1-4,1.5-7,2.5-3,.5-7,1-11,1h-2.5c-6-.5-11.5-3.5-16.5-7.5-4.5-4-7-11-7-21s2.5-16.5,8-21.5,12.5-7.5,21-7.5,6,0,8.5,1c2.5.5,5.5,1.5,8,2.5l4.5,2,1-23.4-2.5-1c-1,0-1.5-.5-2.5-1-1,0-1.5,0-2-.5h0c-2.5-.5-5-1-7.5-1.5h-8.5c-16.5,0-29.9,4.5-39.4,14s-14.5,22.5-14.5,37.9,5,29.9,15.5,38.4c10,8.5,22,12.5,35.4,12.5s2,0,3,0h3c3,0,6.5-1,9.5-1.5s6-1.5,9-2.5l2.5-1-1.5-19v-6l-1-.5Z"/>
      <rect class="st1" x="197.1" y="767.1" width="24.9" height="25.9"/>
    </g>
  </g>
  <metadata>
    <sfw xmlns="http://ns.adobe.com/SaveForWeb/1.0/">
      <slices/>
      <sliceSourceBounds x="0" y="-0.26" width="705.94" height="898.76" bottomLeftOrigin="true"/>
    </sfw>
  </metadata>
</svg>